<svg width="63" height="53" viewBox="0 0 63 53" fill="none" xmlns="http://www.w3.org/2000/svg">
<path d="M62.059 1.73784H17.5306C17.1951 1.73784 16.9206 2.01233 16.9206 2.34782V6.61767C16.9206 6.95316 17.1951 7.22765 17.5306 7.22765H62.059C62.3945 7.22765 62.669 6.95316 62.669 6.61767V2.34782C62.669 2.01233 62.3945 1.73784 62.059 1.73784ZM62.059 23.3921H17.5306C17.1951 23.3921 16.9206 23.6666 16.9206 24.0021V28.2719C16.9206 28.6074 17.1951 28.8819 17.5306 28.8819H62.059C62.3945 28.8819 62.669 28.6074 62.669 28.2719V24.0021C62.669 23.6666 62.3945 23.3921 62.059 23.3921ZM62.059 45.0463H17.5306C17.1951 45.0463 16.9206 45.3208 16.9206 45.6563V49.9262C16.9206 50.2616 17.1951 50.5361 17.5306 50.5361H62.059C62.3945 50.5361 62.669 50.2616 62.669 49.9262V45.6563C62.669 45.3208 62.3945 45.0463 62.059 45.0463ZM0.451172 4.48274C0.451172 5.04347 0.561615 5.5987 0.776195 6.11674C0.990775 6.63478 1.30529 7.10549 1.70178 7.50198C2.09827 7.89848 2.56898 8.21299 3.08702 8.42757C3.60506 8.64215 4.1603 8.75259 4.72102 8.75259C5.28175 8.75259 5.83698 8.64215 6.35502 8.42757C6.87307 8.21299 7.34377 7.89848 7.74026 7.50198C8.13675 7.10549 8.45127 6.63478 8.66585 6.11674C8.88043 5.5987 8.99087 5.04347 8.99087 4.48274C8.99087 3.92202 8.88043 3.36678 8.66585 2.84874C8.45127 2.3307 8.13675 1.85999 7.74026 1.4635C7.34377 1.06701 6.87307 0.752493 6.35502 0.537913C5.83698 0.323333 5.28175 0.212891 4.72102 0.212891C4.1603 0.212891 3.60506 0.323333 3.08702 0.537913C2.56898 0.752493 2.09827 1.06701 1.70178 1.4635C1.30529 1.85999 0.990775 2.3307 0.776195 2.84874C0.561615 3.36678 0.451172 3.92202 0.451172 4.48274ZM0.451172 26.137C0.451172 26.6977 0.561615 27.2529 0.776195 27.771C0.990775 28.289 1.30529 28.7597 1.70178 29.1562C2.09827 29.5527 2.56898 29.8672 3.08702 30.0818C3.60506 30.2964 4.1603 30.4068 4.72102 30.4068C5.28175 30.4068 5.83698 30.2964 6.35502 30.0818C6.87307 29.8672 7.34377 29.5527 7.74026 29.1562C8.13675 28.7597 8.45127 28.289 8.66585 27.771C8.88043 27.2529 8.99087 26.6977 8.99087 26.137C8.99087 25.5763 8.88043 25.021 8.66585 24.503C8.45127 23.9849 8.13675 23.5142 7.74026 23.1177C7.34377 22.7213 6.87307 22.4067 6.35502 22.1922C5.83698 21.9776 5.28175 21.8671 4.72102 21.8671C4.1603 21.8671 3.60506 21.9776 3.08702 22.1922C2.56898 22.4067 2.09827 22.7213 1.70178 23.1177C1.30529 23.5142 0.990775 23.9849 0.776195 24.503C0.561615 25.021 0.451172 25.5763 0.451172 26.137ZM0.451172 47.7912C0.451172 48.352 0.561615 48.9072 0.776195 49.4252C0.990775 49.9433 1.30529 50.414 1.70178 50.8105C2.09827 51.207 2.56898 51.5215 3.08702 51.7361C3.60506 51.9506 4.1603 52.0611 4.72102 52.0611C5.28175 52.0611 5.83698 51.9506 6.35502 51.7361C6.87307 51.5215 7.34377 51.207 7.74026 50.8105C8.13675 50.414 8.45127 49.9433 8.66585 49.4252C8.88043 48.9072 8.99087 48.352 8.99087 47.7912C8.99087 47.2305 8.88043 46.6753 8.66585 46.1572C8.45127 45.6392 8.13675 45.1685 7.74026 44.772C7.34377 44.3755 6.87307 44.061 6.35502 43.8464C5.83698 43.6318 5.28175 43.5214 4.72102 43.5214C4.1603 43.5214 3.60506 43.6318 3.08702 43.8464C2.56898 44.061 2.09827 44.3755 1.70178 44.772C1.30529 45.1685 0.990775 45.6392 0.776195 46.1572C0.561615 46.6753 0.451172 47.2305 0.451172 47.7912Z" fill="#0007AE"/>
</svg>
