<svg width="72" height="60" viewBox="0 0 72 60" fill="none" xmlns="http://www.w3.org/2000/svg">
<path d="M71.1562 1.875H19.8281C19.4414 1.875 19.125 2.19141 19.125 2.57812V7.5C19.125 7.88672 19.4414 8.20312 19.8281 8.20312H71.1562C71.543 8.20312 71.8594 7.88672 71.8594 7.5V2.57812C71.8594 2.19141 71.543 1.875 71.1562 1.875ZM71.1562 26.8359H19.8281C19.4414 26.8359 19.125 27.1523 19.125 27.5391V32.4609C19.125 32.8477 19.4414 33.1641 19.8281 33.1641H71.1562C71.543 33.1641 71.8594 32.8477 71.8594 32.4609V27.5391C71.8594 27.1523 71.543 26.8359 71.1562 26.8359ZM71.1562 51.7969H19.8281C19.4414 51.7969 19.125 52.1133 19.125 52.5V57.4219C19.125 57.8086 19.4414 58.125 19.8281 58.125H71.1562C71.543 58.125 71.8594 57.8086 71.8594 57.4219V52.5C71.8594 52.1133 71.543 51.7969 71.1562 51.7969ZM0.140625 5.03906C0.140625 5.68541 0.267933 6.32543 0.515281 6.92258C0.762628 7.51973 1.12517 8.06232 1.58221 8.51935C2.03925 8.97639 2.58183 9.33893 3.17898 9.58628C3.77613 9.83363 4.41615 9.96094 5.0625 9.96094C5.70885 9.96094 6.34887 9.83363 6.94602 9.58628C7.54317 9.33893 8.08575 8.97639 8.54279 8.51935C8.99983 8.06232 9.36237 7.51973 9.60972 6.92258C9.85707 6.32543 9.98438 5.68541 9.98438 5.03906C9.98438 4.39271 9.85707 3.75269 9.60972 3.15554C9.36237 2.55839 8.99983 2.01581 8.54279 1.55877C8.08575 1.10173 7.54317 0.73919 6.94602 0.491842C6.34887 0.244495 5.70885 0.117188 5.0625 0.117188C4.41615 0.117188 3.77613 0.244495 3.17898 0.491842C2.58183 0.73919 2.03925 1.10173 1.58221 1.55877C1.12517 2.01581 0.762628 2.55839 0.515281 3.15554C0.267933 3.75269 0.140625 4.39271 0.140625 5.03906ZM0.140625 30C0.140625 30.6463 0.267933 31.2864 0.515281 31.8835C0.762628 32.4807 1.12517 33.0233 1.58221 33.4803C2.03925 33.9373 2.58183 34.2999 3.17898 34.5472C3.77613 34.7946 4.41615 34.9219 5.0625 34.9219C5.70885 34.9219 6.34887 34.7946 6.94602 34.5472C7.54317 34.2999 8.08575 33.9373 8.54279 33.4803C8.99983 33.0233 9.36237 32.4807 9.60972 31.8835C9.85707 31.2864 9.98438 30.6463 9.98438 30C9.98438 29.3537 9.85707 28.7136 9.60972 28.1165C9.36237 27.5193 8.99983 26.9767 8.54279 26.5197C8.08575 26.0627 7.54317 25.7001 6.94602 25.4528C6.34887 25.2054 5.70885 25.0781 5.0625 25.0781C4.41615 25.0781 3.77613 25.2054 3.17898 25.4528C2.58183 25.7001 2.03925 26.0627 1.58221 26.5197C1.12517 26.9767 0.762628 27.5193 0.515281 28.1165C0.267933 28.7136 0.140625 29.3537 0.140625 30ZM0.140625 54.9609C0.140625 55.6073 0.267933 56.2473 0.515281 56.8445C0.762628 57.4416 1.12517 57.9842 1.58221 58.4412C2.03925 58.8983 2.58183 59.2608 3.17898 59.5082C3.77613 59.7555 4.41615 59.8828 5.0625 59.8828C5.70885 59.8828 6.34887 59.7555 6.94602 59.5082C7.54317 59.2608 8.08575 58.8983 8.54279 58.4412C8.99983 57.9842 9.36237 57.4416 9.60972 56.8445C9.85707 56.2473 9.98438 55.6073 9.98438 54.9609C9.98438 54.3146 9.85707 53.6746 9.60972 53.0774C9.36237 52.4803 8.99983 51.9377 8.54279 51.4806C8.08575 51.0236 7.54317 50.6611 6.94602 50.4137C6.34887 50.1664 5.70885 50.0391 5.0625 50.0391C4.41615 50.0391 3.77613 50.1664 3.17898 50.4137C2.58183 50.6611 2.03925 51.0236 1.58221 51.4806C1.12517 51.9377 0.762628 52.4803 0.515281 53.0774C0.267933 53.6746 0.140625 54.3146 0.140625 54.9609Z" fill="#747474"/>
</svg>
