<svg width="78" height="79" viewBox="0 0 78 79" fill="none" xmlns="http://www.w3.org/2000/svg">
<path d="M58.1393 0.229242C58.6879 0.456028 59.157 0.840491 59.487 1.33397C59.8171 1.82745 59.9933 2.40775 59.9934 3.00143V18.0024H74.9944C75.5886 18.0014 76.1697 18.1768 76.6641 18.5064C77.1584 18.836 77.5438 19.3049 77.7713 19.8538C77.9988 20.4027 78.0583 21.0067 77.9421 21.5894C77.8259 22.1721 77.5392 22.7072 77.1186 23.1268L65.1178 35.1276C64.8386 35.406 64.5073 35.6267 64.1429 35.777C63.7784 35.9274 63.3879 36.0044 62.9936 36.0037H46.2345L41.7942 40.45C42.0315 41.3395 42.0611 42.2717 41.8808 43.1745C41.7004 44.0773 41.315 44.9266 40.7542 45.6568C40.1934 46.3869 39.4722 46.9784 38.6465 47.3854C37.8207 47.7925 36.9124 48.0043 35.9918 48.0045C34.4004 48.0045 32.8741 47.3723 31.7488 46.247C30.6235 45.1217 29.9914 43.5955 29.9914 42.0041L29.9974 41.7281C30.0385 40.8317 30.2802 39.956 30.7045 39.1655C31.1289 38.3749 31.7251 37.6895 32.4494 37.1598C33.1736 36.6302 34.0075 36.2697 34.8895 36.1049C35.7715 35.9401 36.6792 35.9752 37.5459 36.2077L41.9922 31.7614V15.0022C41.9915 14.608 42.0685 14.2175 42.2188 13.853C42.3691 13.4885 42.5898 13.1572 42.8682 12.8781L54.8691 0.877286C55.289 0.457964 55.8238 0.172581 56.4059 0.0572295C56.988 -0.0581222 57.5912 0.00173873 58.1393 0.229242ZM61.7515 30.0033L67.7519 24.0029H56.9932C56.1975 24.0029 55.4344 23.6868 54.8717 23.1241C54.3091 22.5615 53.993 21.7984 53.993 21.0027V10.2439L47.9926 16.2443V30.0033H61.7515ZM71.6642 37.0597C72.6995 44.5311 71.362 52.1389 67.8407 58.8092C64.3193 65.4795 58.7919 70.8754 52.0387 74.2351C45.2855 77.5948 37.6476 78.7486 30.2034 77.5336C22.7591 76.3186 15.8845 72.7963 10.5499 67.4638C5.21531 62.1313 1.69028 55.2581 0.472421 47.8143C-0.74544 40.3705 0.405381 32.7322 3.76243 25.9777C7.11947 19.2232 12.5132 13.6937 19.1821 10.1697C25.851 6.64571 33.4583 5.30529 40.9301 6.33766L38.6319 8.63581C37.6808 9.58703 36.955 10.7394 36.5078 12.008L35.9918 12.002C30.0361 12.0029 24.2155 13.7763 19.2711 17.0964C14.3268 20.4164 10.4824 25.1329 8.22756 30.6452C5.97273 36.1575 5.40949 42.2161 6.60957 48.0496C7.80965 53.883 10.7187 59.2274 14.9664 63.4019C19.214 67.5765 24.608 70.3925 30.4614 71.4912C36.3148 72.5899 42.3628 71.9216 47.8351 69.5715C53.3075 67.2214 57.9566 63.2957 61.1903 58.2945C64.4241 53.2933 66.0962 47.4428 65.9938 41.488C67.2577 41.041 68.4057 40.3174 69.354 39.3699L71.6582 37.0597H71.6642ZM35.9918 21.0027C31.8381 21.0027 27.7777 22.2344 24.324 24.542C20.8703 26.8497 18.1785 30.1297 16.589 33.9672C14.9994 37.8047 14.5835 42.0274 15.3939 46.1012C16.2042 50.1751 18.2044 53.9172 21.1415 56.8543C24.0786 59.7914 27.8207 61.7916 31.8946 62.602C35.9685 63.4123 40.1912 62.9964 44.0287 61.4069C47.8662 59.8173 51.1462 57.1255 53.4538 53.6718C55.7615 50.2182 56.9932 46.1578 56.9932 42.0041H50.9928C50.9928 44.971 50.113 47.8713 48.4647 50.3382C46.8163 52.8051 44.4735 54.7278 41.7324 55.8632C38.9913 56.9986 35.9751 57.2957 33.0652 56.7169C30.1553 56.138 27.4824 54.7093 25.3844 52.6114C23.2865 50.5135 21.8578 47.8405 21.279 44.9306C20.7002 42.0207 20.9972 39.0045 22.1326 36.2634C23.268 33.5224 25.1907 31.1795 27.6576 29.5312C30.1246 27.8829 33.0248 27.0031 35.9918 27.0031V21.0027Z" fill="#747474"/>
</svg>
