<svg width="69" height="68" viewBox="0 0 69 68" fill="none" xmlns="http://www.w3.org/2000/svg">
<path d="M51.1642 0.502584C51.6402 0.699327 52.0471 1.03286 52.3334 1.46096C52.6198 1.88907 52.7726 2.3925 52.7727 2.90753V15.9213H65.7865C66.3019 15.9204 66.8061 16.0725 67.2349 16.3584C67.6638 16.6444 67.9981 17.0512 68.1955 17.5274C68.3929 18.0035 68.4444 18.5276 68.3436 19.0331C68.2428 19.5386 67.9942 20.0028 67.6292 20.3668L57.2182 30.7778C56.9761 31.0193 56.6887 31.2108 56.3725 31.3412C56.0563 31.4716 55.7175 31.5384 55.3755 31.5378H40.8365L36.9844 35.3951C37.1903 36.1668 37.216 36.9755 37.0595 37.7587C36.9031 38.5419 36.5687 39.2787 36.0822 39.9121C35.5957 40.5455 34.9701 41.0586 34.2537 41.4118C33.5374 41.7649 32.7494 41.9487 31.9507 41.9488C30.5701 41.9488 29.2461 41.4004 28.2698 40.4242C27.2936 39.4479 26.7452 38.1239 26.7452 36.7433L26.7504 36.5039C26.7861 35.7263 26.9957 34.9666 27.3639 34.2807C27.732 33.5949 28.2493 33.0003 28.8776 32.5408C29.5059 32.0813 30.2293 31.7686 30.9944 31.6256C31.7596 31.4827 32.5471 31.5131 33.2989 31.7148L37.1562 27.8575V13.3185C37.1556 12.9765 37.2224 12.6377 37.3528 12.3215C37.4832 12.0053 37.6747 11.7179 37.9162 11.4758L48.3272 1.06478C48.6915 0.701007 49.1555 0.45343 49.6604 0.353359C50.1654 0.253288 50.6887 0.305219 51.1642 0.502584ZM54.2979 26.3323L59.5034 21.1268H50.17C49.4797 21.1268 48.8176 20.8526 48.3295 20.3645C47.8414 19.8764 47.5672 19.2143 47.5672 18.524V9.19057L42.3617 14.3961V26.3323H54.2979ZM62.8974 32.454C63.7956 38.9356 62.6353 45.5355 59.5804 51.3222C56.5255 57.1089 51.7303 61.7899 45.8718 64.7045C40.0132 67.6191 33.3872 68.6201 26.9291 67.5661C20.471 66.5121 14.5071 63.4563 9.87922 58.8303C5.25134 54.2042 2.19329 48.2415 1.13677 41.7838C0.0802406 35.3261 1.07861 28.6997 3.99093 22.84C6.90325 16.9803 11.5824 12.1833 17.3679 9.12617C23.1534 6.06903 29.7529 4.90618 36.2348 5.80179L34.2411 7.7955C33.416 8.6207 32.7863 9.62037 32.3984 10.721L31.9507 10.7158C26.784 10.7165 21.7345 12.255 17.4451 15.1352C13.1558 18.0155 9.82066 22.1071 7.86454 26.8892C5.90842 31.6712 5.4198 36.9273 6.4609 41.9879C7.502 47.0486 10.0257 51.6849 13.7106 55.3065C17.3956 58.928 22.075 61.3709 27.153 62.3241C32.2309 63.2772 37.4777 62.6975 42.2251 60.6587C46.9725 58.6199 51.0057 55.2144 53.8111 50.8757C56.6165 46.537 58.0671 41.4615 57.9782 36.2956C59.0746 35.9078 60.0706 35.28 60.8933 34.4581L62.8922 32.454H62.8974ZM31.9507 18.524C28.3473 18.524 24.8248 19.5926 21.8286 21.5945C18.8325 23.5965 16.4973 26.442 15.1183 29.7711C13.7393 33.1002 13.3785 36.7635 14.0815 40.2977C14.7845 43.8319 16.5197 47.0783 19.0677 49.6263C21.6157 52.1743 24.8621 53.9095 28.3963 54.6125C31.9305 55.3155 35.5938 54.9547 38.9229 53.5757C42.252 52.1967 45.0975 49.8615 47.0995 46.8654C49.1014 43.8692 50.17 40.3467 50.17 36.7433H44.9645C44.9645 39.3172 44.2012 41.8333 42.7712 43.9734C41.3413 46.1135 39.3088 47.7815 36.9309 48.7665C34.5529 49.7514 31.9363 50.0091 29.4118 49.507C26.8874 49.0049 24.5686 47.7654 22.7486 45.9454C20.9286 44.1254 19.6891 41.8066 19.187 39.2822C18.6848 36.7577 18.9426 34.1411 19.9275 31.7632C20.9125 29.3852 22.5805 27.3527 24.7206 25.9228C26.8607 24.4928 29.3768 23.7295 31.9507 23.7295V18.524Z" fill="#0007AE"/>
</svg>
